<mxfile host="app.diagrams.net" modified="2023-08-03T20:43:57.985Z" agent="Mozilla/5.0 (Windows NT 10.0; Win64; x64) AppleWebKit/537.36 (KHTML, like Gecko) Chrome/115.0.0.0 Safari/537.36" version="21.6.6" etag="IPy2eBGTNHiPG8PBt5EQ" type="device">
  <diagram id="TcpIv1mRsalTAPsz7Y_Z" name="PÃ¡gina-1">
    <mxGraphModel dx="844" dy="446" grid="1" gridSize="5" guides="0" tooltips="1" connect="1" arrows="1" fold="1" page="1" pageScale="1" pageWidth="1169" pageHeight="827" math="0" shadow="0">
      <root>
        <mxCell id="0" />
        <mxCell id="1" parent="0" />
        <mxCell id="zyEopgTi7AJE60l7FQdP-1" value="USER" style="rounded=0;whiteSpace=wrap;html=1;" vertex="1" parent="1">
          <mxGeometry x="390" y="320" width="90" height="40" as="geometry" />
        </mxCell>
        <mxCell id="zyEopgTi7AJE60l7FQdP-2" value="has" style="shape=rhombus;perimeter=rhombusPerimeter;whiteSpace=wrap;html=1;align=center;fillColor=none;gradientColor=none;" vertex="1" parent="1">
          <mxGeometry x="530" y="308" width="120" height="65" as="geometry" />
        </mxCell>
        <mxCell id="zyEopgTi7AJE60l7FQdP-3" value="" style="endArrow=none;html=1;rounded=0;entryX=0;entryY=0.5;entryDx=0;entryDy=0;" edge="1" parent="1" target="zyEopgTi7AJE60l7FQdP-2">
          <mxGeometry relative="1" as="geometry">
            <mxPoint x="480" y="340" as="sourcePoint" />
            <mxPoint x="640" y="340" as="targetPoint" />
          </mxGeometry>
        </mxCell>
        <mxCell id="zyEopgTi7AJE60l7FQdP-4" value="" style="endArrow=none;html=1;rounded=0;entryX=0;entryY=0.5;entryDx=0;entryDy=0;exitX=1;exitY=0.5;exitDx=0;exitDy=0;" edge="1" parent="1" source="zyEopgTi7AJE60l7FQdP-2" target="zyEopgTi7AJE60l7FQdP-5">
          <mxGeometry relative="1" as="geometry">
            <mxPoint x="680" y="340" as="sourcePoint" />
            <mxPoint x="710" y="340.5" as="targetPoint" />
          </mxGeometry>
        </mxCell>
        <mxCell id="zyEopgTi7AJE60l7FQdP-5" value="PROFILE" style="rounded=0;whiteSpace=wrap;html=1;gradientColor=none;fillColor=none;" vertex="1" parent="1">
          <mxGeometry x="700" y="320.5" width="90" height="40" as="geometry" />
        </mxCell>
        <mxCell id="zyEopgTi7AJE60l7FQdP-11" value="" style="ellipse;whiteSpace=wrap;html=1;aspect=fixed;" vertex="1" parent="1">
          <mxGeometry x="350" y="360" width="10" height="10" as="geometry" />
        </mxCell>
        <mxCell id="zyEopgTi7AJE60l7FQdP-12" value="" style="ellipse;whiteSpace=wrap;html=1;aspect=fixed;strokeColor=#000000;fillStyle=solid;fillColor=#000000;" vertex="1" parent="1">
          <mxGeometry x="350" y="340" width="10" height="10" as="geometry" />
        </mxCell>
        <mxCell id="zyEopgTi7AJE60l7FQdP-13" value="" style="ellipse;whiteSpace=wrap;html=1;aspect=fixed;" vertex="1" parent="1">
          <mxGeometry x="350" y="320" width="10" height="10" as="geometry" />
        </mxCell>
        <mxCell id="zyEopgTi7AJE60l7FQdP-14" value="" style="ellipse;whiteSpace=wrap;html=1;aspect=fixed;fillColor=#000000;" vertex="1" parent="1">
          <mxGeometry x="350" y="300" width="10" height="10" as="geometry" />
        </mxCell>
        <mxCell id="zyEopgTi7AJE60l7FQdP-20" value="" style="endArrow=none;html=1;rounded=0;entryX=1;entryY=0.5;entryDx=0;entryDy=0;exitX=0;exitY=0;exitDx=0;exitDy=0;" edge="1" parent="1" source="zyEopgTi7AJE60l7FQdP-1" target="zyEopgTi7AJE60l7FQdP-14">
          <mxGeometry width="50" height="50" relative="1" as="geometry">
            <mxPoint x="370" y="350" as="sourcePoint" />
            <mxPoint x="420" y="300" as="targetPoint" />
            <Array as="points">
              <mxPoint x="380" y="305" />
            </Array>
          </mxGeometry>
        </mxCell>
        <mxCell id="zyEopgTi7AJE60l7FQdP-21" value="" style="endArrow=none;html=1;rounded=0;entryX=1;entryY=0.5;entryDx=0;entryDy=0;exitX=0;exitY=0.25;exitDx=0;exitDy=0;" edge="1" parent="1" source="zyEopgTi7AJE60l7FQdP-1" target="zyEopgTi7AJE60l7FQdP-13">
          <mxGeometry width="50" height="50" relative="1" as="geometry">
            <mxPoint x="400" y="330" as="sourcePoint" />
            <mxPoint x="370" y="315" as="targetPoint" />
            <Array as="points">
              <mxPoint x="380" y="325" />
            </Array>
          </mxGeometry>
        </mxCell>
        <mxCell id="zyEopgTi7AJE60l7FQdP-22" value="" style="endArrow=none;html=1;rounded=0;entryX=1;entryY=0.5;entryDx=0;entryDy=0;exitX=0;exitY=0.5;exitDx=0;exitDy=0;" edge="1" parent="1" source="zyEopgTi7AJE60l7FQdP-1" target="zyEopgTi7AJE60l7FQdP-12">
          <mxGeometry width="50" height="50" relative="1" as="geometry">
            <mxPoint x="410" y="340" as="sourcePoint" />
            <mxPoint x="380" y="325" as="targetPoint" />
            <Array as="points">
              <mxPoint x="380" y="345" />
            </Array>
          </mxGeometry>
        </mxCell>
        <mxCell id="zyEopgTi7AJE60l7FQdP-23" value="" style="endArrow=none;html=1;rounded=0;entryX=1;entryY=0.5;entryDx=0;entryDy=0;exitX=0;exitY=0.75;exitDx=0;exitDy=0;" edge="1" parent="1" source="zyEopgTi7AJE60l7FQdP-1" target="zyEopgTi7AJE60l7FQdP-11">
          <mxGeometry width="50" height="50" relative="1" as="geometry">
            <mxPoint x="420" y="350" as="sourcePoint" />
            <mxPoint x="390" y="335" as="targetPoint" />
            <Array as="points">
              <mxPoint x="380" y="365" />
            </Array>
          </mxGeometry>
        </mxCell>
        <mxCell id="zyEopgTi7AJE60l7FQdP-29" value="id" style="text;html=1;strokeColor=none;fillColor=none;align=center;verticalAlign=middle;whiteSpace=wrap;rounded=0;" vertex="1" parent="1">
          <mxGeometry x="320" y="300" width="30" height="10" as="geometry" />
        </mxCell>
        <mxCell id="zyEopgTi7AJE60l7FQdP-30" value="name" style="text;html=1;strokeColor=none;fillColor=none;align=center;verticalAlign=middle;whiteSpace=wrap;rounded=0;" vertex="1" parent="1">
          <mxGeometry x="310" y="320.5" width="30" height="10" as="geometry" />
        </mxCell>
        <mxCell id="zyEopgTi7AJE60l7FQdP-31" value="email" style="text;html=1;strokeColor=none;fillColor=none;align=center;verticalAlign=middle;whiteSpace=wrap;rounded=0;" vertex="1" parent="1">
          <mxGeometry x="310" y="340" width="30" height="10" as="geometry" />
        </mxCell>
        <mxCell id="zyEopgTi7AJE60l7FQdP-32" value="password" style="text;html=1;strokeColor=none;fillColor=none;align=center;verticalAlign=middle;whiteSpace=wrap;rounded=0;" vertex="1" parent="1">
          <mxGeometry x="300" y="360" width="30" height="10" as="geometry" />
        </mxCell>
        <mxCell id="zyEopgTi7AJE60l7FQdP-33" value="(1,1)" style="text;html=1;align=center;verticalAlign=middle;resizable=0;points=[];autosize=1;strokeColor=none;fillColor=none;" vertex="1" parent="1">
          <mxGeometry x="480" y="338" width="50" height="30" as="geometry" />
        </mxCell>
        <mxCell id="zyEopgTi7AJE60l7FQdP-34" value="(1,1)" style="text;html=1;align=center;verticalAlign=middle;resizable=0;points=[];autosize=1;strokeColor=none;fillColor=none;" vertex="1" parent="1">
          <mxGeometry x="650" y="338" width="50" height="30" as="geometry" />
        </mxCell>
        <mxCell id="zyEopgTi7AJE60l7FQdP-40" value="uploads" style="shape=rhombus;perimeter=rhombusPerimeter;whiteSpace=wrap;html=1;align=center;fillColor=none;gradientColor=none;" vertex="1" parent="1">
          <mxGeometry x="850" y="308" width="120" height="65" as="geometry" />
        </mxCell>
        <mxCell id="zyEopgTi7AJE60l7FQdP-41" value="" style="endArrow=none;html=1;rounded=0;entryX=0;entryY=0.5;entryDx=0;entryDy=0;exitX=1;exitY=0.5;exitDx=0;exitDy=0;" edge="1" parent="1" source="zyEopgTi7AJE60l7FQdP-40" target="zyEopgTi7AJE60l7FQdP-42">
          <mxGeometry relative="1" as="geometry">
            <mxPoint x="1000" y="340" as="sourcePoint" />
            <mxPoint x="1030" y="340.5" as="targetPoint" />
          </mxGeometry>
        </mxCell>
        <mxCell id="zyEopgTi7AJE60l7FQdP-42" value="POST" style="rounded=0;whiteSpace=wrap;html=1;gradientColor=none;fillColor=none;" vertex="1" parent="1">
          <mxGeometry x="1020" y="320.5" width="90" height="40" as="geometry" />
        </mxCell>
        <mxCell id="zyEopgTi7AJE60l7FQdP-43" value="" style="ellipse;whiteSpace=wrap;html=1;aspect=fixed;" vertex="1" parent="1">
          <mxGeometry x="1140" y="380" width="10" height="10" as="geometry" />
        </mxCell>
        <mxCell id="zyEopgTi7AJE60l7FQdP-44" value="" style="ellipse;whiteSpace=wrap;html=1;aspect=fixed;" vertex="1" parent="1">
          <mxGeometry x="1140" y="350" width="10" height="10" as="geometry" />
        </mxCell>
        <mxCell id="zyEopgTi7AJE60l7FQdP-45" value="" style="ellipse;whiteSpace=wrap;html=1;aspect=fixed;" vertex="1" parent="1">
          <mxGeometry x="1140" y="330" width="10" height="10" as="geometry" />
        </mxCell>
        <mxCell id="zyEopgTi7AJE60l7FQdP-46" value="" style="ellipse;whiteSpace=wrap;html=1;aspect=fixed;fillColor=#000000;" vertex="1" parent="1">
          <mxGeometry x="1140" y="295" width="10" height="10" as="geometry" />
        </mxCell>
        <mxCell id="zyEopgTi7AJE60l7FQdP-49" value="" style="endArrow=none;html=1;rounded=0;exitX=1;exitY=0.25;exitDx=0;exitDy=0;entryX=0;entryY=0.5;entryDx=0;entryDy=0;" edge="1" parent="1" source="zyEopgTi7AJE60l7FQdP-42" target="zyEopgTi7AJE60l7FQdP-46">
          <mxGeometry width="50" height="50" relative="1" as="geometry">
            <mxPoint x="1120" y="331" as="sourcePoint" />
            <mxPoint x="1150" y="305" as="targetPoint" />
            <Array as="points">
              <mxPoint x="1120" y="300" />
            </Array>
          </mxGeometry>
        </mxCell>
        <mxCell id="zyEopgTi7AJE60l7FQdP-50" value="" style="endArrow=none;html=1;rounded=0;exitX=1;exitY=0.5;exitDx=0;exitDy=0;entryX=0;entryY=0.5;entryDx=0;entryDy=0;" edge="1" parent="1" source="zyEopgTi7AJE60l7FQdP-42" target="zyEopgTi7AJE60l7FQdP-45">
          <mxGeometry width="50" height="50" relative="1" as="geometry">
            <mxPoint x="1130" y="341" as="sourcePoint" />
            <mxPoint x="1160" y="315" as="targetPoint" />
            <Array as="points">
              <mxPoint x="1120" y="335" />
            </Array>
          </mxGeometry>
        </mxCell>
        <mxCell id="zyEopgTi7AJE60l7FQdP-51" value="" style="endArrow=none;html=1;rounded=0;exitX=1;exitY=0.75;exitDx=0;exitDy=0;entryX=0;entryY=0.5;entryDx=0;entryDy=0;" edge="1" parent="1" source="zyEopgTi7AJE60l7FQdP-42" target="zyEopgTi7AJE60l7FQdP-44">
          <mxGeometry width="50" height="50" relative="1" as="geometry">
            <mxPoint x="1140" y="351" as="sourcePoint" />
            <mxPoint x="1170" y="325" as="targetPoint" />
            <Array as="points">
              <mxPoint x="1120" y="355" />
            </Array>
          </mxGeometry>
        </mxCell>
        <mxCell id="zyEopgTi7AJE60l7FQdP-52" value="" style="endArrow=none;html=1;rounded=0;exitX=1;exitY=1;exitDx=0;exitDy=0;entryX=0;entryY=0.5;entryDx=0;entryDy=0;" edge="1" parent="1" source="zyEopgTi7AJE60l7FQdP-42" target="zyEopgTi7AJE60l7FQdP-43">
          <mxGeometry width="50" height="50" relative="1" as="geometry">
            <mxPoint x="1150" y="361" as="sourcePoint" />
            <mxPoint x="1180" y="335" as="targetPoint" />
            <Array as="points">
              <mxPoint x="1120" y="385" />
            </Array>
          </mxGeometry>
        </mxCell>
        <mxCell id="zyEopgTi7AJE60l7FQdP-54" value="id" style="text;html=1;strokeColor=none;fillColor=none;align=center;verticalAlign=middle;whiteSpace=wrap;rounded=0;" vertex="1" parent="1">
          <mxGeometry x="1140" y="295" width="50" height="10" as="geometry" />
        </mxCell>
        <mxCell id="zyEopgTi7AJE60l7FQdP-55" value="description" style="text;html=1;strokeColor=none;fillColor=none;align=center;verticalAlign=middle;whiteSpace=wrap;rounded=0;" vertex="1" parent="1">
          <mxGeometry x="1160" y="330" width="58" height="10" as="geometry" />
        </mxCell>
        <mxCell id="zyEopgTi7AJE60l7FQdP-56" value="image" style="text;html=1;strokeColor=none;fillColor=none;align=center;verticalAlign=middle;whiteSpace=wrap;rounded=0;" vertex="1" parent="1">
          <mxGeometry x="1160" y="350" width="30" height="10" as="geometry" />
        </mxCell>
        <mxCell id="zyEopgTi7AJE60l7FQdP-57" value="date" style="text;html=1;strokeColor=none;fillColor=none;align=center;verticalAlign=middle;whiteSpace=wrap;rounded=0;" vertex="1" parent="1">
          <mxGeometry x="1150" y="370" width="40" height="10" as="geometry" />
        </mxCell>
        <mxCell id="zyEopgTi7AJE60l7FQdP-58" value="(1,1)" style="text;html=1;align=center;verticalAlign=middle;resizable=0;points=[];autosize=1;strokeColor=none;fillColor=none;" vertex="1" parent="1">
          <mxGeometry x="970" y="338" width="50" height="30" as="geometry" />
        </mxCell>
        <mxCell id="zyEopgTi7AJE60l7FQdP-59" value="follows" style="shape=rhombus;perimeter=rhombusPerimeter;whiteSpace=wrap;html=1;align=center;fillColor=none;gradientColor=none;" vertex="1" parent="1">
          <mxGeometry x="685" y="180" width="120" height="65" as="geometry" />
        </mxCell>
        <mxCell id="zyEopgTi7AJE60l7FQdP-60" value="" style="endArrow=none;html=1;rounded=0;entryX=0;entryY=0.5;entryDx=0;entryDy=0;exitX=0;exitY=0.25;exitDx=0;exitDy=0;" edge="1" parent="1" source="zyEopgTi7AJE60l7FQdP-5" target="zyEopgTi7AJE60l7FQdP-59">
          <mxGeometry width="50" height="50" relative="1" as="geometry">
            <mxPoint x="530" y="280" as="sourcePoint" />
            <mxPoint x="580" y="230" as="targetPoint" />
            <Array as="points">
              <mxPoint x="650" y="330" />
              <mxPoint x="650" y="213" />
            </Array>
          </mxGeometry>
        </mxCell>
        <mxCell id="zyEopgTi7AJE60l7FQdP-61" value="" style="endArrow=none;html=1;rounded=0;entryX=1;entryY=0.5;entryDx=0;entryDy=0;exitX=1;exitY=0.25;exitDx=0;exitDy=0;" edge="1" parent="1" source="zyEopgTi7AJE60l7FQdP-5" target="zyEopgTi7AJE60l7FQdP-59">
          <mxGeometry width="50" height="50" relative="1" as="geometry">
            <mxPoint x="710" y="341" as="sourcePoint" />
            <mxPoint x="695" y="223" as="targetPoint" />
            <Array as="points">
              <mxPoint x="860" y="330" />
              <mxPoint x="860" y="213" />
            </Array>
          </mxGeometry>
        </mxCell>
        <mxCell id="zyEopgTi7AJE60l7FQdP-62" value="" style="endArrow=none;html=1;rounded=0;entryX=0;entryY=0.5;entryDx=0;entryDy=0;exitX=1;exitY=0.5;exitDx=0;exitDy=0;" edge="1" parent="1" source="zyEopgTi7AJE60l7FQdP-5" target="zyEopgTi7AJE60l7FQdP-40">
          <mxGeometry relative="1" as="geometry">
            <mxPoint x="660" y="351" as="sourcePoint" />
            <mxPoint x="710" y="351" as="targetPoint" />
          </mxGeometry>
        </mxCell>
        <mxCell id="zyEopgTi7AJE60l7FQdP-63" value="comments" style="shape=rhombus;perimeter=rhombusPerimeter;whiteSpace=wrap;html=1;align=center;fillColor=none;gradientColor=none;" vertex="1" parent="1">
          <mxGeometry x="850" y="390" width="120" height="65" as="geometry" />
        </mxCell>
        <mxCell id="zyEopgTi7AJE60l7FQdP-64" value="" style="ellipse;whiteSpace=wrap;html=1;aspect=fixed;fillColor=#000000;" vertex="1" parent="1">
          <mxGeometry x="720" y="260" width="10" height="10" as="geometry" />
        </mxCell>
        <mxCell id="zyEopgTi7AJE60l7FQdP-65" value="" style="endArrow=none;html=1;rounded=0;entryX=0.5;entryY=1;entryDx=0;entryDy=0;exitX=0.276;exitY=-0.004;exitDx=0;exitDy=0;exitPerimeter=0;" edge="1" parent="1" target="zyEopgTi7AJE60l7FQdP-64" source="zyEopgTi7AJE60l7FQdP-5">
          <mxGeometry width="50" height="50" relative="1" as="geometry">
            <mxPoint x="840" y="300" as="sourcePoint" />
            <mxPoint x="820" y="285" as="targetPoint" />
            <Array as="points">
              <mxPoint x="725" y="300" />
            </Array>
          </mxGeometry>
        </mxCell>
        <mxCell id="zyEopgTi7AJE60l7FQdP-66" value="profile_picture" style="text;html=1;strokeColor=none;fillColor=none;align=center;verticalAlign=middle;whiteSpace=wrap;rounded=0;" vertex="1" parent="1">
          <mxGeometry x="800" y="298" width="30" height="10" as="geometry" />
        </mxCell>
        <mxCell id="zyEopgTi7AJE60l7FQdP-68" value="" style="ellipse;whiteSpace=wrap;html=1;aspect=fixed;fillColor=#000000;" vertex="1" parent="1">
          <mxGeometry x="740" y="280" width="10" height="10" as="geometry" />
        </mxCell>
        <mxCell id="zyEopgTi7AJE60l7FQdP-69" value="" style="endArrow=none;html=1;rounded=0;entryX=0.5;entryY=1;entryDx=0;entryDy=0;exitX=0.5;exitY=0;exitDx=0;exitDy=0;" edge="1" parent="1" target="zyEopgTi7AJE60l7FQdP-68" source="zyEopgTi7AJE60l7FQdP-5">
          <mxGeometry width="50" height="50" relative="1" as="geometry">
            <mxPoint x="735" y="330" as="sourcePoint" />
            <mxPoint x="830" y="295" as="targetPoint" />
            <Array as="points" />
          </mxGeometry>
        </mxCell>
        <mxCell id="zyEopgTi7AJE60l7FQdP-70" value="" style="ellipse;whiteSpace=wrap;html=1;aspect=fixed;" vertex="1" parent="1">
          <mxGeometry x="760" y="300.5" width="10" height="10" as="geometry" />
        </mxCell>
        <mxCell id="zyEopgTi7AJE60l7FQdP-71" value="" style="endArrow=none;html=1;rounded=0;entryX=0.5;entryY=1;entryDx=0;entryDy=0;" edge="1" parent="1" target="zyEopgTi7AJE60l7FQdP-70">
          <mxGeometry width="50" height="50" relative="1" as="geometry">
            <mxPoint x="765" y="320.5" as="sourcePoint" />
            <mxPoint x="860" y="300.5" as="targetPoint" />
            <Array as="points">
              <mxPoint x="765" y="315.5" />
            </Array>
          </mxGeometry>
        </mxCell>
        <mxCell id="zyEopgTi7AJE60l7FQdP-72" value="username" style="text;html=1;strokeColor=none;fillColor=none;align=center;verticalAlign=middle;whiteSpace=wrap;rounded=0;" vertex="1" parent="1">
          <mxGeometry x="765" y="280" width="40" height="10" as="geometry" />
        </mxCell>
        <mxCell id="zyEopgTi7AJE60l7FQdP-73" value="" style="endArrow=none;html=1;rounded=0;entryX=0.5;entryY=1;entryDx=0;entryDy=0;exitX=0;exitY=0.5;exitDx=0;exitDy=0;" edge="1" parent="1" source="zyEopgTi7AJE60l7FQdP-63" target="zyEopgTi7AJE60l7FQdP-5">
          <mxGeometry width="50" height="50" relative="1" as="geometry">
            <mxPoint x="710" y="450" as="sourcePoint" />
            <mxPoint x="760" y="400" as="targetPoint" />
            <Array as="points">
              <mxPoint x="745" y="423" />
            </Array>
          </mxGeometry>
        </mxCell>
        <mxCell id="zyEopgTi7AJE60l7FQdP-74" value="" style="endArrow=none;html=1;rounded=0;entryX=1;entryY=0.5;entryDx=0;entryDy=0;exitX=0.5;exitY=1;exitDx=0;exitDy=0;" edge="1" parent="1" source="zyEopgTi7AJE60l7FQdP-42" target="zyEopgTi7AJE60l7FQdP-63">
          <mxGeometry width="50" height="50" relative="1" as="geometry">
            <mxPoint x="860" y="433" as="sourcePoint" />
            <mxPoint x="755" y="371" as="targetPoint" />
            <Array as="points">
              <mxPoint x="1065" y="423" />
            </Array>
          </mxGeometry>
        </mxCell>
        <mxCell id="zyEopgTi7AJE60l7FQdP-77" value="id" style="text;html=1;strokeColor=none;fillColor=none;align=center;verticalAlign=middle;whiteSpace=wrap;rounded=0;" vertex="1" parent="1">
          <mxGeometry x="720" y="260" width="40" height="10" as="geometry" />
        </mxCell>
        <mxCell id="zyEopgTi7AJE60l7FQdP-78" value="(0,n)" style="text;html=1;align=center;verticalAlign=middle;resizable=0;points=[];autosize=1;strokeColor=none;fillColor=none;" vertex="1" parent="1">
          <mxGeometry x="790" y="338" width="50" height="30" as="geometry" />
        </mxCell>
        <mxCell id="zyEopgTi7AJE60l7FQdP-79" value="date" style="text;html=1;strokeColor=none;fillColor=none;align=center;verticalAlign=middle;whiteSpace=wrap;rounded=0;" vertex="1" parent="1">
          <mxGeometry x="960" y="460" width="30" height="10" as="geometry" />
        </mxCell>
        <mxCell id="zyEopgTi7AJE60l7FQdP-80" value="" style="ellipse;whiteSpace=wrap;html=1;aspect=fixed;fillColor=none;" vertex="1" parent="1">
          <mxGeometry x="930" y="480" width="10" height="10" as="geometry" />
        </mxCell>
        <mxCell id="zyEopgTi7AJE60l7FQdP-81" value="" style="endArrow=none;html=1;rounded=0;entryX=0.5;entryY=0;entryDx=0;entryDy=0;exitX=0.709;exitY=0.788;exitDx=0;exitDy=0;exitPerimeter=0;" edge="1" parent="1" target="zyEopgTi7AJE60l7FQdP-80" source="zyEopgTi7AJE60l7FQdP-63">
          <mxGeometry width="50" height="50" relative="1" as="geometry">
            <mxPoint x="935" y="521" as="sourcePoint" />
            <mxPoint x="1020" y="495" as="targetPoint" />
            <Array as="points" />
          </mxGeometry>
        </mxCell>
        <mxCell id="zyEopgTi7AJE60l7FQdP-82" value="" style="ellipse;whiteSpace=wrap;html=1;aspect=fixed;" vertex="1" parent="1">
          <mxGeometry x="945" y="460" width="10" height="10" as="geometry" />
        </mxCell>
        <mxCell id="zyEopgTi7AJE60l7FQdP-83" value="" style="endArrow=none;html=1;rounded=0;entryX=0.5;entryY=0;entryDx=0;entryDy=0;exitX=0.831;exitY=0.667;exitDx=0;exitDy=0;exitPerimeter=0;" edge="1" parent="1" target="zyEopgTi7AJE60l7FQdP-82" source="zyEopgTi7AJE60l7FQdP-63">
          <mxGeometry width="50" height="50" relative="1" as="geometry">
            <mxPoint x="955" y="520.5" as="sourcePoint" />
            <mxPoint x="1050" y="500.5" as="targetPoint" />
            <Array as="points" />
          </mxGeometry>
        </mxCell>
        <mxCell id="zyEopgTi7AJE60l7FQdP-84" value="content" style="text;html=1;strokeColor=none;fillColor=none;align=center;verticalAlign=middle;whiteSpace=wrap;rounded=0;" vertex="1" parent="1">
          <mxGeometry x="950" y="480" width="40" height="10" as="geometry" />
        </mxCell>
        <mxCell id="zyEopgTi7AJE60l7FQdP-85" value="(0,n)" style="text;html=1;align=center;verticalAlign=middle;resizable=0;points=[];autosize=1;strokeColor=none;fillColor=none;" vertex="1" parent="1">
          <mxGeometry x="740" y="360.5" width="50" height="30" as="geometry" />
        </mxCell>
        <mxCell id="zyEopgTi7AJE60l7FQdP-86" value="(0,n)" style="text;html=1;align=center;verticalAlign=middle;resizable=0;points=[];autosize=1;strokeColor=none;fillColor=none;" vertex="1" parent="1">
          <mxGeometry x="1020" y="360.5" width="50" height="30" as="geometry" />
        </mxCell>
        <mxCell id="zyEopgTi7AJE60l7FQdP-87" value="(0,n)" style="text;html=1;align=center;verticalAlign=middle;resizable=0;points=[];autosize=1;strokeColor=none;fillColor=none;" vertex="1" parent="1">
          <mxGeometry x="800" y="308" width="50" height="30" as="geometry" />
        </mxCell>
        <mxCell id="zyEopgTi7AJE60l7FQdP-88" value="(0,n)" style="text;html=1;align=center;verticalAlign=middle;resizable=0;points=[];autosize=1;strokeColor=none;fillColor=none;" vertex="1" parent="1">
          <mxGeometry x="650" y="300.5" width="50" height="30" as="geometry" />
        </mxCell>
        <mxCell id="zyEopgTi7AJE60l7FQdP-89" value="(0,1)" style="text;html=1;align=center;verticalAlign=middle;resizable=0;points=[];autosize=1;strokeColor=none;fillColor=none;" vertex="1" parent="1">
          <mxGeometry x="755" y="300.5" width="50" height="30" as="geometry" />
        </mxCell>
        <mxCell id="zyEopgTi7AJE60l7FQdP-90" value="(1,10)" style="text;html=1;align=center;verticalAlign=middle;resizable=0;points=[];autosize=1;strokeColor=none;fillColor=none;" vertex="1" parent="1">
          <mxGeometry x="1105" y="350" width="50" height="30" as="geometry" />
        </mxCell>
        <mxCell id="zyEopgTi7AJE60l7FQdP-91" value="(0,1)" style="text;html=1;align=center;verticalAlign=middle;resizable=0;points=[];autosize=1;strokeColor=none;fillColor=none;" vertex="1" parent="1">
          <mxGeometry x="1105" y="310" width="45" height="30" as="geometry" />
        </mxCell>
      </root>
    </mxGraphModel>
  </diagram>
</mxfile>
